<mxfile host="Electron" modified="2024-07-20T19:27:06.198Z" agent="Mozilla/5.0 (Macintosh; Intel Mac OS X 10_15_7) AppleWebKit/537.36 (KHTML, like Gecko) draw.io/22.0.3 Chrome/114.0.5735.289 Electron/25.8.4 Safari/537.36" etag="YvgNY0m4fCXdLCUgeQId" version="22.0.3" type="device">
  <diagram name="Page-1" id="76KaGQkb-qSBfm69GvDx">
    <mxGraphModel dx="1311" dy="1175" grid="1" gridSize="10" guides="1" tooltips="1" connect="1" arrows="1" fold="1" page="1" pageScale="1" pageWidth="827" pageHeight="1169" math="0" shadow="0">
      <root>
        <mxCell id="0" />
        <mxCell id="1" parent="0" />
        <mxCell id="1UHWaqFk_JRRpMgXnING-3" value="" style="edgeStyle=orthogonalEdgeStyle;rounded=0;orthogonalLoop=1;jettySize=auto;html=1;" edge="1" parent="1" source="1UHWaqFk_JRRpMgXnING-1" target="1UHWaqFk_JRRpMgXnING-2">
          <mxGeometry relative="1" as="geometry" />
        </mxCell>
        <mxCell id="1UHWaqFk_JRRpMgXnING-1" value="&lt;font style=&quot;font-size: 17px;&quot;&gt;Website is loaded&lt;/font&gt;" style="rounded=1;whiteSpace=wrap;html=1;fontStyle=1;fillColor=#d5e8d4;strokeColor=#82b366;" vertex="1" parent="1">
          <mxGeometry x="342" y="20" width="144" height="60" as="geometry" />
        </mxCell>
        <mxCell id="1UHWaqFk_JRRpMgXnING-46" style="edgeStyle=orthogonalEdgeStyle;rounded=0;orthogonalLoop=1;jettySize=auto;html=1;entryX=0.5;entryY=0;entryDx=0;entryDy=0;" edge="1" parent="1" target="1UHWaqFk_JRRpMgXnING-4">
          <mxGeometry relative="1" as="geometry">
            <mxPoint x="414" y="320" as="sourcePoint" />
          </mxGeometry>
        </mxCell>
        <mxCell id="1UHWaqFk_JRRpMgXnING-47" style="edgeStyle=orthogonalEdgeStyle;rounded=0;orthogonalLoop=1;jettySize=auto;html=1;entryX=0.5;entryY=0;entryDx=0;entryDy=0;" edge="1" parent="1" source="1UHWaqFk_JRRpMgXnING-2" target="1UHWaqFk_JRRpMgXnING-6">
          <mxGeometry relative="1" as="geometry" />
        </mxCell>
        <mxCell id="1UHWaqFk_JRRpMgXnING-48" style="edgeStyle=orthogonalEdgeStyle;rounded=0;orthogonalLoop=1;jettySize=auto;html=1;entryX=0.5;entryY=0;entryDx=0;entryDy=0;exitX=0.5;exitY=1;exitDx=0;exitDy=0;" edge="1" parent="1" source="1UHWaqFk_JRRpMgXnING-2" target="1UHWaqFk_JRRpMgXnING-7">
          <mxGeometry relative="1" as="geometry">
            <Array as="points">
              <mxPoint x="414" y="320" />
              <mxPoint x="640" y="320" />
            </Array>
          </mxGeometry>
        </mxCell>
        <mxCell id="1UHWaqFk_JRRpMgXnING-57" style="edgeStyle=orthogonalEdgeStyle;rounded=0;orthogonalLoop=1;jettySize=auto;html=1;entryX=0;entryY=0.5;entryDx=0;entryDy=0;" edge="1" parent="1" source="1UHWaqFk_JRRpMgXnING-2" target="1UHWaqFk_JRRpMgXnING-54">
          <mxGeometry relative="1" as="geometry" />
        </mxCell>
        <mxCell id="1UHWaqFk_JRRpMgXnING-2" value="&lt;font style=&quot;font-size: 18px;&quot;&gt;Is user &lt;br&gt;logged in?&lt;/font&gt;" style="rhombus;whiteSpace=wrap;html=1;rounded=1;fontStyle=1;fillColor=#f8cecc;strokeColor=#b85450;" vertex="1" parent="1">
          <mxGeometry x="334" y="120" width="159" height="159" as="geometry" />
        </mxCell>
        <mxCell id="1UHWaqFk_JRRpMgXnING-50" style="edgeStyle=orthogonalEdgeStyle;rounded=0;orthogonalLoop=1;jettySize=auto;html=1;entryX=0.5;entryY=0;entryDx=0;entryDy=0;" edge="1" parent="1" source="1UHWaqFk_JRRpMgXnING-4" target="1UHWaqFk_JRRpMgXnING-8">
          <mxGeometry relative="1" as="geometry">
            <Array as="points">
              <mxPoint x="280" y="390" />
              <mxPoint x="280" y="488" />
            </Array>
          </mxGeometry>
        </mxCell>
        <mxCell id="1UHWaqFk_JRRpMgXnING-4" value="Add an author" style="whiteSpace=wrap;html=1;rounded=1;fontStyle=1;fontSize=16;fillColor=#d5e8d4;strokeColor=#82b366;" vertex="1" parent="1">
          <mxGeometry x="130" y="360" width="120" height="60" as="geometry" />
        </mxCell>
        <mxCell id="1UHWaqFk_JRRpMgXnING-9" value="" style="edgeStyle=orthogonalEdgeStyle;rounded=0;orthogonalLoop=1;jettySize=auto;html=1;" edge="1" parent="1" source="1UHWaqFk_JRRpMgXnING-6" target="1UHWaqFk_JRRpMgXnING-8">
          <mxGeometry relative="1" as="geometry" />
        </mxCell>
        <mxCell id="1UHWaqFk_JRRpMgXnING-6" value="Add a category" style="whiteSpace=wrap;html=1;rounded=1;fontStyle=1;fontSize=16;fillColor=#d5e8d4;strokeColor=#82b366;" vertex="1" parent="1">
          <mxGeometry x="354" y="360" width="120" height="60" as="geometry" />
        </mxCell>
        <mxCell id="1UHWaqFk_JRRpMgXnING-49" style="edgeStyle=orthogonalEdgeStyle;rounded=0;orthogonalLoop=1;jettySize=auto;html=1;entryX=0.5;entryY=0;entryDx=0;entryDy=0;" edge="1" parent="1" source="1UHWaqFk_JRRpMgXnING-7" target="1UHWaqFk_JRRpMgXnING-8">
          <mxGeometry relative="1" as="geometry">
            <Array as="points">
              <mxPoint x="560" y="390" />
              <mxPoint x="560" y="488" />
            </Array>
          </mxGeometry>
        </mxCell>
        <mxCell id="1UHWaqFk_JRRpMgXnING-7" value="Add a book" style="whiteSpace=wrap;html=1;rounded=1;fontStyle=1;fontSize=16;fillColor=#d5e8d4;strokeColor=#82b366;" vertex="1" parent="1">
          <mxGeometry x="580" y="360" width="120" height="60" as="geometry" />
        </mxCell>
        <mxCell id="1UHWaqFk_JRRpMgXnING-15" value="" style="edgeStyle=orthogonalEdgeStyle;rounded=0;orthogonalLoop=1;jettySize=auto;html=1;" edge="1" parent="1" source="1UHWaqFk_JRRpMgXnING-8" target="1UHWaqFk_JRRpMgXnING-14">
          <mxGeometry relative="1" as="geometry" />
        </mxCell>
        <mxCell id="1UHWaqFk_JRRpMgXnING-22" style="edgeStyle=orthogonalEdgeStyle;rounded=0;orthogonalLoop=1;jettySize=auto;html=1;entryX=0.5;entryY=0;entryDx=0;entryDy=0;" edge="1" parent="1" source="1UHWaqFk_JRRpMgXnING-8" target="1UHWaqFk_JRRpMgXnING-17">
          <mxGeometry relative="1" as="geometry">
            <Array as="points">
              <mxPoint x="190" y="680" />
            </Array>
          </mxGeometry>
        </mxCell>
        <mxCell id="1UHWaqFk_JRRpMgXnING-23" style="edgeStyle=orthogonalEdgeStyle;rounded=0;orthogonalLoop=1;jettySize=auto;html=1;entryX=0.5;entryY=0;entryDx=0;entryDy=0;" edge="1" parent="1" source="1UHWaqFk_JRRpMgXnING-8" target="1UHWaqFk_JRRpMgXnING-16">
          <mxGeometry relative="1" as="geometry">
            <Array as="points">
              <mxPoint x="640" y="680" />
            </Array>
          </mxGeometry>
        </mxCell>
        <mxCell id="1UHWaqFk_JRRpMgXnING-61" style="edgeStyle=orthogonalEdgeStyle;rounded=0;orthogonalLoop=1;jettySize=auto;html=1;entryX=1;entryY=0.5;entryDx=0;entryDy=0;" edge="1" parent="1" source="1UHWaqFk_JRRpMgXnING-8" target="1UHWaqFk_JRRpMgXnING-60">
          <mxGeometry relative="1" as="geometry" />
        </mxCell>
        <mxCell id="1UHWaqFk_JRRpMgXnING-8" value="&lt;font style=&quot;font-size: 18px;&quot;&gt;&lt;b&gt;Are Inputs &lt;br&gt;all correct?&lt;/b&gt;&lt;/font&gt;" style="rhombus;whiteSpace=wrap;html=1;rounded=1;fillColor=#f8cecc;strokeColor=#b85450;" vertex="1" parent="1">
          <mxGeometry x="317" y="488" width="194" height="194" as="geometry" />
        </mxCell>
        <mxCell id="1UHWaqFk_JRRpMgXnING-38" style="edgeStyle=orthogonalEdgeStyle;rounded=0;orthogonalLoop=1;jettySize=auto;html=1;entryX=0.5;entryY=0;entryDx=0;entryDy=0;" edge="1" parent="1" source="1UHWaqFk_JRRpMgXnING-14" target="1UHWaqFk_JRRpMgXnING-34">
          <mxGeometry relative="1" as="geometry" />
        </mxCell>
        <mxCell id="1UHWaqFk_JRRpMgXnING-14" value="&lt;font style=&quot;font-size: 14px;&quot;&gt;&lt;b&gt;Save category to the Database&lt;/b&gt;&lt;/font&gt;" style="whiteSpace=wrap;html=1;rounded=1;fillColor=#d5e8d4;strokeColor=#82b366;" vertex="1" parent="1">
          <mxGeometry x="354" y="770" width="120" height="60" as="geometry" />
        </mxCell>
        <mxCell id="1UHWaqFk_JRRpMgXnING-39" style="edgeStyle=orthogonalEdgeStyle;rounded=0;orthogonalLoop=1;jettySize=auto;html=1;entryX=0.5;entryY=0;entryDx=0;entryDy=0;" edge="1" parent="1" source="1UHWaqFk_JRRpMgXnING-16" target="1UHWaqFk_JRRpMgXnING-35">
          <mxGeometry relative="1" as="geometry" />
        </mxCell>
        <mxCell id="1UHWaqFk_JRRpMgXnING-16" value="&lt;font style=&quot;font-size: 14px;&quot;&gt;&lt;b&gt;Save book to the Database&lt;/b&gt;&lt;/font&gt;" style="whiteSpace=wrap;html=1;rounded=1;fillColor=#d5e8d4;strokeColor=#82b366;" vertex="1" parent="1">
          <mxGeometry x="580" y="770" width="120" height="60" as="geometry" />
        </mxCell>
        <mxCell id="1UHWaqFk_JRRpMgXnING-17" value="&lt;font style=&quot;font-size: 14px;&quot;&gt;&lt;b&gt;Save author to the Database&lt;/b&gt;&lt;/font&gt;" style="whiteSpace=wrap;html=1;rounded=1;fillColor=#d5e8d4;strokeColor=#82b366;" vertex="1" parent="1">
          <mxGeometry x="130" y="770" width="120" height="60" as="geometry" />
        </mxCell>
        <mxCell id="1UHWaqFk_JRRpMgXnING-41" style="edgeStyle=orthogonalEdgeStyle;rounded=0;orthogonalLoop=1;jettySize=auto;html=1;entryX=0;entryY=0.5;entryDx=0;entryDy=0;" edge="1" parent="1" source="1UHWaqFk_JRRpMgXnING-26" target="1UHWaqFk_JRRpMgXnING-27">
          <mxGeometry relative="1" as="geometry" />
        </mxCell>
        <mxCell id="1UHWaqFk_JRRpMgXnING-26" value="&lt;font style=&quot;font-size: 14px;&quot;&gt;&lt;b&gt;Show confirmation Message&lt;br&gt;&lt;/b&gt;&lt;/font&gt;" style="whiteSpace=wrap;html=1;rounded=1;fillColor=#d5e8d4;strokeColor=#82b366;" vertex="1" parent="1">
          <mxGeometry x="129" y="900" width="120" height="60" as="geometry" />
        </mxCell>
        <mxCell id="1UHWaqFk_JRRpMgXnING-44" style="edgeStyle=orthogonalEdgeStyle;rounded=0;orthogonalLoop=1;jettySize=auto;html=1;entryX=0.5;entryY=0;entryDx=0;entryDy=0;" edge="1" parent="1" source="1UHWaqFk_JRRpMgXnING-27" target="1UHWaqFk_JRRpMgXnING-36">
          <mxGeometry relative="1" as="geometry" />
        </mxCell>
        <mxCell id="1UHWaqFk_JRRpMgXnING-27" value="&lt;font style=&quot;font-size: 14px;&quot;&gt;&lt;b&gt;Refresh Page&lt;/b&gt;&lt;/font&gt;" style="whiteSpace=wrap;html=1;rounded=1;fillColor=#d5e8d4;strokeColor=#82b366;" vertex="1" parent="1">
          <mxGeometry x="354" y="1010" width="120" height="60" as="geometry" />
        </mxCell>
        <mxCell id="1UHWaqFk_JRRpMgXnING-42" style="edgeStyle=orthogonalEdgeStyle;rounded=0;orthogonalLoop=1;jettySize=auto;html=1;entryX=0.5;entryY=0;entryDx=0;entryDy=0;" edge="1" parent="1" source="1UHWaqFk_JRRpMgXnING-34" target="1UHWaqFk_JRRpMgXnING-27">
          <mxGeometry relative="1" as="geometry" />
        </mxCell>
        <mxCell id="1UHWaqFk_JRRpMgXnING-34" value="&lt;font style=&quot;font-size: 14px;&quot;&gt;&lt;b&gt;Show confirmation Message&lt;br&gt;&lt;/b&gt;&lt;/font&gt;" style="whiteSpace=wrap;html=1;rounded=1;fillColor=#d5e8d4;strokeColor=#82b366;" vertex="1" parent="1">
          <mxGeometry x="354" y="900" width="120" height="60" as="geometry" />
        </mxCell>
        <mxCell id="1UHWaqFk_JRRpMgXnING-43" style="edgeStyle=orthogonalEdgeStyle;rounded=0;orthogonalLoop=1;jettySize=auto;html=1;entryX=1;entryY=0.5;entryDx=0;entryDy=0;" edge="1" parent="1" source="1UHWaqFk_JRRpMgXnING-35" target="1UHWaqFk_JRRpMgXnING-27">
          <mxGeometry relative="1" as="geometry" />
        </mxCell>
        <mxCell id="1UHWaqFk_JRRpMgXnING-35" value="&lt;font style=&quot;font-size: 14px;&quot;&gt;&lt;b&gt;Show confirmation Message&lt;br&gt;&lt;/b&gt;&lt;/font&gt;" style="whiteSpace=wrap;html=1;rounded=1;fillColor=#d5e8d4;strokeColor=#82b366;" vertex="1" parent="1">
          <mxGeometry x="580" y="900" width="120" height="60" as="geometry" />
        </mxCell>
        <mxCell id="1UHWaqFk_JRRpMgXnING-36" value="&lt;font style=&quot;font-size: 14px;&quot;&gt;&lt;b&gt;Finish&lt;/b&gt;&lt;/font&gt;" style="whiteSpace=wrap;html=1;rounded=1;fillColor=#d5e8d4;strokeColor=#82b366;" vertex="1" parent="1">
          <mxGeometry x="354" y="1100" width="120" height="60" as="geometry" />
        </mxCell>
        <mxCell id="1UHWaqFk_JRRpMgXnING-40" style="edgeStyle=orthogonalEdgeStyle;rounded=0;orthogonalLoop=1;jettySize=auto;html=1;entryX=0.511;entryY=-0.033;entryDx=0;entryDy=0;entryPerimeter=0;" edge="1" parent="1" source="1UHWaqFk_JRRpMgXnING-17" target="1UHWaqFk_JRRpMgXnING-26">
          <mxGeometry relative="1" as="geometry" />
        </mxCell>
        <mxCell id="1UHWaqFk_JRRpMgXnING-52" value="&lt;h1&gt;&lt;span style=&quot;background-color: rgb(255, 255, 0);&quot;&gt;&lt;font color=&quot;#0000cc&quot;&gt;CREATING new author, Category or Book&lt;/font&gt;&lt;/span&gt;&lt;/h1&gt;&lt;div&gt;&lt;font style=&quot;font-size: 21px;&quot;&gt;Only when a visitor is logged in can add an author, a category or a new book&lt;/font&gt;&lt;/div&gt;" style="text;html=1;strokeColor=none;fillColor=none;spacing=5;spacingTop=-20;whiteSpace=wrap;overflow=hidden;rounded=0;" vertex="1" parent="1">
          <mxGeometry x="20" y="10" width="310" height="180" as="geometry" />
        </mxCell>
        <mxCell id="1UHWaqFk_JRRpMgXnING-58" style="edgeStyle=orthogonalEdgeStyle;rounded=0;orthogonalLoop=1;jettySize=auto;html=1;entryX=0.5;entryY=0;entryDx=0;entryDy=0;" edge="1" parent="1" source="1UHWaqFk_JRRpMgXnING-54" target="1UHWaqFk_JRRpMgXnING-56">
          <mxGeometry relative="1" as="geometry" />
        </mxCell>
        <mxCell id="1UHWaqFk_JRRpMgXnING-54" value="User should create account" style="whiteSpace=wrap;html=1;rounded=1;fontStyle=1;fontSize=16;fillColor=#d5e8d4;strokeColor=#82b366;" vertex="1" parent="1">
          <mxGeometry x="630" y="154.5" width="180" height="90" as="geometry" />
        </mxCell>
        <mxCell id="1UHWaqFk_JRRpMgXnING-59" style="edgeStyle=orthogonalEdgeStyle;rounded=0;orthogonalLoop=1;jettySize=auto;html=1;entryX=1;entryY=0.5;entryDx=0;entryDy=0;" edge="1" parent="1" source="1UHWaqFk_JRRpMgXnING-56" target="1UHWaqFk_JRRpMgXnING-36">
          <mxGeometry relative="1" as="geometry">
            <Array as="points">
              <mxPoint x="720" y="1130" />
            </Array>
          </mxGeometry>
        </mxCell>
        <mxCell id="1UHWaqFk_JRRpMgXnING-56" value="Hide storing Form" style="whiteSpace=wrap;html=1;rounded=1;fontStyle=1;fontSize=16;fillColor=#d5e8d4;strokeColor=#82b366;" vertex="1" parent="1">
          <mxGeometry x="630" y="530" width="180" height="90" as="geometry" />
        </mxCell>
        <mxCell id="1UHWaqFk_JRRpMgXnING-60" value="User need to&lt;br&gt;reenter the input" style="whiteSpace=wrap;html=1;rounded=1;fontStyle=1;fontSize=16;fillColor=#d5e8d4;strokeColor=#82b366;" vertex="1" parent="1">
          <mxGeometry x="10" y="540" width="180" height="90" as="geometry" />
        </mxCell>
      </root>
    </mxGraphModel>
  </diagram>
</mxfile>
